<svg width="953" height="320" viewBox="0 0 953 320" fill="none" xmlns="http://www.w3.org/2000/svg">
<path d="M124.587 265.775L134.058 263.715L130.311 246.496L120.841 248.557L124.587 265.775Z" fill="#FF5A5A"/>
<path d="M135.828 258.875L133.686 259.373L132.033 251.802L120.798 254.247L123.494 266.591L123.573 266.574L124.785 271.796L146.644 266.723L146.405 265.69C145.276 260.833 140.542 257.781 135.828 258.875Z" fill="#6BDDBC"/>
<path d="M125.076 272.985L147.142 267.863C147.583 267.76 147.86 267.315 147.757 266.874L147.648 266.402C147.545 265.961 147.101 265.684 146.66 265.787L124.592 270.909C124.151 271.012 123.874 271.457 123.976 271.898L124.086 272.37C124.19 272.811 124.635 273.088 125.076 272.985Z" fill="#3E3D5E"/>
<path d="M32.3577 190.261L29.2803 199.452L45.9915 205.047L49.0689 195.856L32.3577 190.261Z" fill="#FF5A5A"/>
<path d="M32.3824 203.793L33.1552 201.372L40.5054 203.827L44.1557 192.924L32.1704 188.921L32.1447 188.998L27.0377 187.367L20.209 208.742L21.8008 209.25C26.229 210.666 30.9667 208.223 32.3824 203.793Z" fill="#6BDDBC"/>
<path d="M25.8674 187.008L18.9737 208.587C18.8352 209.018 19.0763 209.483 19.5071 209.621L19.9688 209.768C20.3996 209.907 20.8647 209.666 21.0031 209.235L27.8969 187.656C28.0353 187.225 27.7943 186.76 27.3634 186.622L26.9018 186.475C26.4709 186.336 26.0059 186.577 25.8674 187.008Z" fill="#6D6D91"/>
<path d="M31.8911 197.191C30.0446 196.601 28.8922 195.041 29.3179 193.708C29.7437 192.374 31.5868 191.772 33.4333 192.362C35.2798 192.952 36.4322 194.511 36.0064 195.845C35.5807 197.179 33.7376 197.782 31.8911 197.191Z" fill="white"/>
<path d="M96.7803 152.663C96.7803 152.663 96.7974 216.279 43.9834 199.308" stroke="#262638" stroke-width="11.9682" stroke-miterlimit="10"/>
<path d="M82.4121 152.663C82.4121 152.663 104.377 170.961 126.175 249.968" stroke="#3E3D5E" stroke-width="11.9682" stroke-miterlimit="10"/>
<path d="M119.899 106.411C145.457 132.752 153.376 120.459 161.711 97.8779" stroke="#FFB692" stroke-width="8.54872" stroke-miterlimit="10" stroke-linecap="round"/>
<path d="M133.522 109.007L122.319 99.8347C119.045 97.4171 114.337 98.1506 111.805 101.474C109.272 104.798 109.874 109.452 113.148 111.868L123.352 120.223L133.522 109.007Z" fill="#B72C54"/>
<path d="M83.7543 158.637H94.1445C100.431 158.637 105.574 153.335 105.574 146.857C105.574 142.519 102.131 138.972 97.923 138.972H79.9758C75.7681 138.972 72.3247 142.521 72.3247 146.857C72.3247 153.335 77.4693 158.637 83.7543 158.637Z" fill="#3E3D5E"/>
<path d="M79.5757 138.97H98.3231C101.086 138.97 103.497 140.584 104.721 142.943C91.9474 153.126 79.6681 152.147 72.6769 150.235C72.4563 149.35 72.3247 148.426 72.3247 147.472V146.445C72.3247 142.333 75.5886 138.97 79.5757 138.97Z" fill="#262638"/>
<path d="M110.472 139.433C106.866 149.199 95.9034 154.259 86.2536 150.352C86.1784 150.321 86.1014 150.29 86.0245 150.258C80.1601 147.852 75.7011 144.823 72.627 142.355L89.6167 96.3308C91.6359 90.8596 97.7089 88.0607 103.18 90.0816L113.319 93.8243C120.119 96.3342 123.596 103.881 121.086 110.681L110.472 139.433Z" fill="#FF5A5A"/>
<path d="M99.2325 91.5689C98.3109 93.8634 101.65 97.418 106.692 99.509C111.734 101.598 116.569 101.431 117.491 99.1363C118.412 96.8418 115.073 93.2872 110.031 91.1962C104.989 89.1069 100.154 89.2745 99.2325 91.5689Z" fill="#FFB692"/>
<path d="M89.3104 98.4114C57.092 88.023 55.001 103.501 55.001 130.705" stroke="#FFB692" stroke-width="8.54872" stroke-miterlimit="10" stroke-linecap="round"/>
<path d="M78.0811 104.184L92.6481 106.206C96.7566 106.574 100.286 103.536 100.528 99.4185C100.771 95.3014 97.6388 91.6665 93.5286 91.2989L79.743 89.5225L78.0811 104.184Z" fill="#B72C54"/>
<path d="M116.497 95.7181C122.527 78.5779 116.147 86.3435 112.141 84.933C108.135 83.5242 107.632 74.5788 101.992 90.6145C99.8784 96.6225 103.308 97.2449 107.314 98.6537C111.32 100.064 114.384 101.724 116.497 95.7181Z" fill="#FFB692"/>
<path d="M103.905 85.6598C107.817 76.7229 108.642 83.7021 112.141 84.9331C116.018 86.2975 122.124 79.0601 117.034 94.1606C110.103 94.0683 106.146 89.9529 103.905 85.6598Z" fill="#D88D87"/>
<path d="M125.092 73.2502C124.011 75.6661 124.391 78.2581 125.942 79.0411C127.492 79.8242 129.624 78.5009 130.707 76.0867C131.787 73.6708 131.408 71.0789 129.857 70.2958C128.306 69.5127 126.172 70.8344 125.092 73.2502Z" fill="#FFB692"/>
<path d="M126.753 73.9944C126.517 73.8747 126.259 73.832 125.994 73.8542C126.011 73.8149 126.025 73.7738 126.044 73.7328C126.758 72.1376 128.167 71.2639 129.191 71.7803C130.215 72.2983 130.467 74.0115 129.754 75.6067C129.205 76.8326 128.246 77.631 127.365 77.6994C128.013 76.1384 127.753 74.4988 126.753 73.9944Z" fill="#D88D87"/>
<path d="M113.313 54.1339L120.135 54.6605C125.457 55.0709 129.466 59.8958 129.042 65.3823L127.923 79.9032C127.331 87.5646 120.767 93.364 113.333 92.7896C105.901 92.2168 100.303 85.4787 100.893 77.8173L101.946 64.1736C102.408 58.2048 107.522 53.6877 113.313 54.1339Z" fill="#FFB692"/>
<path d="M103.999 58.57C113.577 73.4858 124.278 68.8644 129.025 65.6261L129.043 65.3816C129.117 64.4293 129.049 63.5009 128.872 62.6084L108.696 54.8633C106.818 55.6207 105.191 56.9116 103.999 58.57Z" fill="#D88D87"/>
<path d="M101.722 70.3026C94.8817 59.0252 102.839 56.6435 102.839 56.6435C102.839 56.6435 102.634 46.2038 112.619 47.0399C122.604 47.8759 128.225 53.6514 128.225 53.6514L131.766 48.7137C131.766 48.7137 136.921 55.6262 131.13 61.0427L137.536 58.2797C137.536 58.2797 136.733 68.7057 128.666 70.0376L128.374 64.8041C128.374 64.8041 114.715 69.8085 107.684 60.9931C107.684 60.9931 109.596 71.4328 103.453 73.24L101.722 70.3026Z" fill="#3E3D5E"/>
<path d="M120.075 77.3027C120.075 77.3027 116.496 77.696 116.43 78.3765C116.361 79.0569 118.052 79.5134 118.546 79.2587C119.04 79.0022 120.075 77.3027 120.075 77.3027Z" fill="#D88D87"/>
<path d="M121.632 72.2147C121.567 73.061 122.179 73.7979 122.999 73.8612C123.82 73.9244 124.538 73.2901 124.603 72.4438C124.668 71.5975 124.056 70.8606 123.235 70.7973C122.415 70.734 121.697 71.3701 121.632 72.2147Z" fill="#34344F"/>
<path d="M110.944 71.3905C110.879 72.2368 111.491 72.9737 112.312 73.037C113.133 73.1002 113.851 72.4659 113.917 71.6196C113.982 70.7733 113.37 70.0364 112.55 69.9731C111.729 69.9098 111.009 70.5441 110.944 71.3905Z" fill="#34344F"/>
<path d="M117.838 69.1904C118.099 70.9788 118.477 72.721 118.895 74.4547C119.107 75.3199 119.32 76.185 119.566 77.0433L119.613 77.204C119.631 77.2741 119.592 77.1544 119.63 77.098C119.654 77.0553 119.631 77.0894 119.638 77.0843C119.619 77.1219 119.543 77.2023 119.474 77.269L118.994 77.6896C118.664 77.9768 118.323 78.264 118.002 78.5974C118.447 78.4949 118.862 78.329 119.267 78.1324C119.467 78.0264 119.671 77.9255 119.864 77.7836C119.963 77.7084 120.059 77.6451 120.177 77.5083C120.211 77.4553 120.233 77.4485 120.273 77.3527C120.319 77.2416 120.305 77.0672 120.298 77.0826L120.259 76.9185C120.045 76.0465 119.797 75.1797 119.548 74.3128C119.042 72.5843 118.498 70.8643 117.838 69.1904Z" fill="#D88D87"/>
<path d="M118.837 80.9584C117.226 80.3377 115.002 79.3546 112.986 78.0244C111.659 77.1491 110.02 78.775 110.454 80.56C110.916 82.4595 112.015 84.3813 114.481 85.1387C116.501 85.7593 117.929 85.4772 118.929 84.8668C120.34 84.0017 120.271 81.5123 118.837 80.9584Z" fill="#34344F"/>
<path d="M114.479 85.1387C112.011 84.3813 110.912 82.4613 110.452 80.56C110.387 80.2916 110.374 80.03 110.394 79.777C111.37 79.5496 112.595 79.6334 114.116 80.3275C116.467 81.3995 117.308 83.4461 117.519 85.3867C117.519 85.3901 117.519 85.3935 117.519 85.3986C116.696 85.5542 115.696 85.5115 114.479 85.1387Z" fill="#FF9292"/>
<path d="M116.11 83.2759C115.775 83.6606 114.838 83.3904 114.021 82.6706C113.202 81.9508 112.812 81.0549 113.147 80.6702C113.484 80.2855 114.419 80.5557 115.236 81.2755C116.054 81.9953 116.445 82.8912 116.11 83.2759Z" fill="#FFABAB"/>
<path d="M118.837 80.9583C117.226 80.3377 115.002 79.3546 112.986 78.0244C112.172 77.4859 111.24 77.8945 110.743 78.7015C111.791 80.1582 113.562 81.5311 115.769 82.4424C117.185 83.0271 118.601 83.3469 119.892 83.4221C120.102 82.4253 119.741 81.3071 118.837 80.9583Z" fill="white"/>
<path d="M104.184 71.7496C104.789 74.3279 103.928 76.8002 102.257 77.2738C100.587 77.7474 98.7421 76.0411 98.1369 73.4645C97.5316 70.8862 98.3933 68.4139 100.064 67.9403C101.734 67.4667 103.579 69.1713 104.184 71.7496Z" fill="#FFB692"/>
<path d="M102.413 72.161C102.668 72.0892 102.929 72.096 103.184 72.1678C103.176 72.1251 103.169 72.0824 103.159 72.0396C102.758 70.3367 101.539 69.21 100.437 69.5229C99.3339 69.8358 98.7628 71.4703 99.1629 73.1732C99.4707 74.4828 100.262 75.4488 101.114 75.6831C100.772 74.0263 101.338 72.467 102.413 72.161Z" fill="#D88D87"/>
<path d="M133.613 52.82C130.657 57.6449 125.574 62.4151 117.388 60.5002C108.456 58.4092 106.953 52.5106 107.235 47.9883C103.689 49.9237 103 54.157 102.87 55.8856C113.132 66.1526 125.148 63.3657 132.905 58.8007C134.061 56.7165 134.034 54.5845 133.613 52.82Z" fill="#5B5B7F"/>
<path d="M158.277 105.417C152.394 105.997 153.105 97.4273 153.105 97.4273L149.793 92.4178C149.793 92.4178 154.382 89.6617 156.3 94.6729C156.3 94.6729 158.28 87.3621 161.19 85.837C162.556 85.1206 168.327 86.7243 170.679 88.9128C171.178 89.3779 171.196 90.1558 170.719 90.6414C169.573 91.8108 167.525 94.3618 167.386 97.7659C167.195 102.509 164.357 108.659 158.277 105.417Z" fill="#FFB692"/>
<path d="M156.3 94.6738C156.3 94.6738 160.612 95.5492 160.882 100.663C160.882 100.663 159.856 96.204 156.213 95.0055L156.3 94.6738Z" fill="#D88D87"/>
<path d="M164.59 97.5382C164.59 97.5382 161.945 95.1463 158.454 94.4059C158.454 94.4059 162.026 92.9715 164.59 97.5382Z" fill="#D88D87"/>
<path d="M163.562 96.6587L163.367 96.4432C163.367 96.4432 165.73 90.8763 170.13 88.457C170.211 88.5169 170.289 88.5784 170.366 88.6417C168.804 89.7274 165.253 92.5365 163.562 96.6587Z" fill="#D88D87"/>
<path d="M160.154 94.5219L159.688 94.4809C159.688 94.4809 160.288 88.4609 164.068 85.8945C165.177 86.1288 166.439 86.5288 167.612 87.0401C166.426 87.912 163.08 90.7228 162.069 95.3545L161.727 95.2417C161.727 95.2417 162.31 89.1824 166.942 86.8776L164.535 86.0074C164.535 86.0074 160.583 88.8934 160.154 94.5219Z" fill="#D88D87"/>
<path d="M61.6163 131.891L64.4203 133.823L65.8839 134.997C66.6926 135.645 66.8088 136.805 66.1455 137.586L61.3958 143.175C61.3975 143.201 61.3411 143.17 61.2385 143.1C60.2793 142.436 59.8074 141.38 59.8399 140.323C58.4191 140.682 56.9043 140.617 55.504 140.11C53.9652 139.232 53.5959 137.229 54.7261 135.898L57.713 132.383C58.6773 131.251 60.3785 131.038 61.6163 131.891Z" fill="#F29D7E"/>
<path d="M54.8372 127.12L53.5224 127.404C49.8379 128.199 47.5315 131.745 48.3675 135.324C49.2053 138.902 52.8693 141.159 56.5538 140.366L57.8686 140.082C61.5514 139.287 63.8595 135.741 63.0218 132.162C62.184 128.582 58.52 126.325 54.8372 127.12Z" fill="#FFB692"/>
<path d="M54.3418 134.939C53.3655 134.852 52.4969 135.554 52.4115 136.503L52.0986 143.553C52.0131 144.5 52.7432 145.346 53.7194 145.433C54.6957 145.521 55.5642 144.816 55.6497 143.869L55.9626 136.82C56.0481 135.872 55.318 135.026 54.3418 134.939Z" fill="#FFB692"/>
<path d="M51.5613 134.286C50.5918 134.139 49.6788 134.787 49.5318 135.728L48.7555 142.741C48.6085 143.681 49.2805 144.571 50.2499 144.718C51.2193 144.865 52.1323 144.217 52.2793 143.276L53.0556 136.263C53.2026 135.324 52.5307 134.435 51.5613 134.286Z" fill="#FFB692"/>
<path d="M60.5752 135.969C59.5989 135.882 58.7304 136.585 58.6449 137.534L58.332 144.583C58.2465 145.53 58.9766 146.376 59.9528 146.464C60.9291 146.551 61.7976 145.846 61.8831 144.899L62.196 137.85C62.2815 136.903 61.5515 136.056 60.5752 135.969Z" fill="#FFB692"/>
<path d="M57.7951 135.319C56.8257 135.172 55.9127 135.82 55.7656 136.758L54.9894 143.772C54.8424 144.712 55.5143 145.601 56.4837 145.748C57.4532 145.895 58.3661 145.247 58.5132 144.308L59.2894 137.295C59.4365 136.355 58.7645 135.466 57.7951 135.319Z" fill="#FFB692"/>
<path d="M272.197 268.217L281.889 268.348L282.127 250.727L272.435 250.596L272.197 268.217Z" fill="#FF5A5A"/>
<path d="M284.704 264.072L282.504 264.074L282.601 256.326L271.103 256.17L270.942 268.803L271.023 268.805L271.024 274.167L293.465 274.158V273.1C293.467 268.111 289.543 264.071 284.704 264.072Z" fill="#6BDDBC"/>
<path d="M271.044 275.391L293.698 275.383C294.151 275.383 294.52 275.012 294.52 274.56V274.076C294.52 273.623 294.149 273.254 293.698 273.254L271.044 273.262C270.59 273.262 270.221 273.633 270.221 274.085V274.569C270.221 275.022 270.592 275.391 271.044 275.391Z" fill="#3E3D5E"/>
<path d="M244.227 239.177L248.638 247.809L264.331 239.789L259.92 231.157L244.227 239.177Z" fill="#FF5A5A"/>
<path d="M253.922 248.654L252.734 246.408L259.631 242.875L254.399 232.636L243.152 238.394L243.19 238.466L238.451 240.971L248.938 260.809L250.415 260.028C254.524 257.858 256.095 252.765 253.922 248.654Z" fill="#6BDDBC"/>
<path d="M237.376 241.557L247.962 261.585C248.174 261.985 248.674 262.139 249.074 261.929L249.503 261.703C249.903 261.491 250.057 260.992 249.846 260.592L239.26 240.564C239.048 240.164 238.548 240.01 238.148 240.22L237.719 240.448C237.317 240.658 237.163 241.157 237.376 241.557Z" fill="#6D6D91"/>
<path d="M248.865 244.383C247.15 245.289 245.23 245.021 244.577 243.783C243.922 242.545 244.782 240.808 246.497 239.902C248.212 238.996 250.132 239.264 250.785 240.502C251.438 241.74 250.58 243.477 248.865 244.383Z" fill="white"/>
<path d="M271.273 156.414C271.273 156.414 306.244 214.458 259.383 236.748" stroke="#262638" stroke-width="11.9682" stroke-miterlimit="10"/>
<path d="M256.904 156.414C256.904 156.414 279.213 188.463 277.145 251.344" stroke="#3E3D5E" stroke-width="11.9682" stroke-miterlimit="10"/>
<path d="M285.157 101.08C283.512 137.746 297.89 135.078 320.039 125.661" stroke="#FFB692" stroke-width="8.54872" stroke-miterlimit="10" stroke-linecap="round"/>
<path d="M292.609 112.775L291.602 98.3307C291.116 94.2888 287.353 91.3669 283.198 91.8029C279.044 92.2388 276.069 95.8669 276.554 99.9087L277.471 113.065L292.609 112.775Z" fill="#B72C54"/>
<path d="M258.246 162.388H268.636C274.923 162.388 280.066 157.086 280.066 150.608C280.066 146.27 276.622 142.723 272.415 142.723H254.468C250.26 142.723 246.816 146.272 246.816 150.608C246.818 157.086 251.961 162.388 258.246 162.388Z" fill="#3E3D5E"/>
<path d="M254.069 142.722H272.815C275.578 142.722 277.99 144.336 279.213 146.695C266.439 156.878 254.16 155.899 247.169 153.987C246.946 153.102 246.816 152.178 246.816 151.224V150.197C246.818 146.085 250.08 142.722 254.069 142.722Z" fill="#262638"/>
<path d="M282.15 145.117C281.247 149.653 277.242 152.949 272.617 152.845C269.272 152.77 265.456 152.378 261.336 151.404C255.167 149.945 250.289 147.649 246.866 145.695L256.446 97.5793C257.585 91.8602 263.145 88.1467 268.864 89.2853L279.464 91.3952C286.573 92.8108 291.188 99.7199 289.772 106.829L282.15 145.117Z" fill="#FF5A5A"/>
<path d="M265.2 91.37C264.648 93.7808 268.503 96.7694 273.809 98.0449C279.116 99.3203 283.865 98.3988 284.416 95.9863C284.968 93.5756 281.114 90.5869 275.807 89.3115C270.5 88.0377 265.751 88.9576 265.2 91.37Z" fill="#FFB692"/>
<path d="M257.925 99.6523C231.802 121.183 243.71 131.289 266.621 145.959" stroke="#FFB692" stroke-width="8.54872" stroke-miterlimit="10" stroke-linecap="round"/>
<path d="M256.729 112.221L266.289 101.044C268.814 97.7821 268.157 93.1727 264.822 90.7482C261.486 88.3238 256.735 89.0026 254.209 92.2631L245.279 102.915L256.729 112.221Z" fill="#B72C54"/>
<path d="M282.902 92.7675C286.176 74.8938 281.088 83.5623 276.913 82.798C272.736 82.0337 270.84 73.2764 267.777 89.9977C266.63 96.2622 270.115 96.3409 274.292 97.1068C278.468 97.8728 281.753 99.0303 282.902 92.7675Z" fill="#FFB692"/>
<path d="M268.89 84.8026C271.356 75.3648 273.264 82.1268 276.911 82.7953C280.954 83.5357 285.853 75.4332 283.187 91.144C276.326 92.1374 271.776 88.6923 268.89 84.8026Z" fill="#D88D87"/>
<path d="M289.523 70.364C288.531 72.8175 289.006 75.394 290.584 76.1207C292.163 76.8473 294.245 75.447 295.238 72.9936C296.23 70.5401 295.755 67.9635 294.177 67.2368C292.597 66.5102 290.514 67.9105 289.523 70.364Z" fill="#FFB692"/>
<path d="M291.21 71.0465C290.968 70.9353 290.709 70.9028 290.445 70.9336C290.461 70.8926 290.474 70.8515 290.49 70.8105C291.145 69.1897 292.521 68.2647 293.564 68.7451C294.607 69.2256 294.92 70.9285 294.265 72.5476C293.76 73.794 292.83 74.625 291.955 74.7258C292.547 73.1443 292.225 71.5149 291.21 71.0465Z" fill="#D88D87"/>
<path d="M277.052 51.6901L283.888 51.9671C289.222 52.1825 293.404 56.8587 293.182 62.3555L292.594 76.9089C292.283 84.5873 285.934 90.621 278.487 90.3201C271.037 90.0192 265.197 83.4914 265.508 75.8129L266.062 62.1401C266.303 56.156 271.249 51.4542 277.052 51.6901Z" fill="#FFB692"/>
<path d="M267.906 56.4619C278.023 71.017 288.548 66.0091 293.173 62.5999L293.183 62.3537C293.221 61.3997 293.12 60.473 292.91 59.5873L272.463 52.5859C270.618 53.4135 269.038 54.7624 267.906 56.4619Z" fill="#D88D87"/>
<path d="M266.06 68.2716C258.812 57.2523 266.677 54.5799 266.677 54.5799C266.677 54.5799 266.089 44.1556 276.098 44.6258C286.107 45.096 291.935 50.6612 291.935 50.6612L295.293 45.5969C295.293 45.5969 300.697 52.3162 295.108 57.9413L301.41 54.9458C301.41 54.9458 300.988 65.3941 292.975 67.02L292.492 61.8002C292.492 61.8002 279.026 67.3004 271.678 58.7483C271.678 58.7483 273.971 69.1128 267.898 71.1422L266.06 68.2716Z" fill="#3E3D5E"/>
<path d="M284.657 74.5957C284.657 74.5957 281.095 75.1189 281.053 75.8028C281.01 76.485 282.716 76.8799 283.2 76.6064C283.686 76.3328 284.657 74.5957 284.657 74.5957Z" fill="#D88D87"/>
<path d="M286.027 69.4561C285.993 70.3042 286.632 71.0189 287.454 71.0513C288.277 71.0838 288.971 70.4239 289.007 69.5758C289.041 68.7278 288.402 68.0131 287.579 67.9806C286.757 67.9482 286.061 68.6081 286.027 69.4561Z" fill="#34344F"/>
<path d="M275.317 69.0226C275.283 69.8706 275.922 70.5853 276.744 70.6178C277.567 70.6502 278.261 69.9903 278.297 69.1422C278.331 68.2942 277.692 67.5795 276.869 67.547C276.047 67.5146 275.351 68.1745 275.317 69.0226Z" fill="#34344F"/>
<path d="M282.125 66.5723C282.452 68.3504 282.894 70.0772 283.373 71.7938C283.618 72.6504 283.86 73.507 284.139 74.355L284.192 74.514C284.214 74.5841 284.17 74.4662 284.204 74.408C284.226 74.3636 284.206 74.3995 284.213 74.3926C284.195 74.432 284.122 74.514 284.055 74.5824L283.592 75.0201C283.272 75.3193 282.942 75.6185 282.635 75.9639C283.076 75.8459 283.484 75.663 283.883 75.4527C284.078 75.3398 284.278 75.2321 284.466 75.0817C284.563 75.003 284.655 74.9363 284.768 74.7944C284.801 74.7397 284.821 74.7329 284.859 74.6354C284.902 74.5226 284.881 74.3482 284.874 74.3653L284.828 74.2029C284.582 73.3377 284.303 72.4811 284.023 71.6263C283.452 69.9182 282.847 68.2187 282.125 66.5723Z" fill="#D88D87"/>
<path d="M283.552 78.2946C281.921 77.7338 279.661 76.8328 277.597 75.5761C276.24 74.7486 274.662 76.4344 275.159 78.2023C275.689 80.0847 276.859 81.9637 279.352 82.6305C281.395 83.1759 282.81 82.8408 283.787 82.1963C285.168 81.2815 285.007 78.7939 283.552 78.2946Z" fill="#34344F"/>
<path d="M279.351 82.6304C276.858 81.9636 275.689 80.0846 275.159 78.2022C275.084 77.9372 275.061 77.6756 275.072 77.4225C276.039 77.1592 277.265 77.1986 278.811 77.8363C281.199 78.8228 282.114 80.8352 282.396 82.7672C282.396 82.7706 282.396 82.774 282.398 82.7792C281.581 82.9655 280.582 82.9587 279.351 82.6304Z" fill="#FF9292"/>
<path d="M280.912 80.7092C280.591 81.1059 279.646 80.8699 278.801 80.1809C277.956 79.4919 277.532 78.6114 277.855 78.213C278.177 77.8163 279.122 78.0523 279.965 78.7413C280.81 79.4303 281.234 80.3126 280.912 80.7092Z" fill="#FFABAB"/>
<path d="M283.552 78.2941C281.921 77.7333 279.661 76.8322 277.597 75.5756C276.763 75.0678 275.848 75.5089 275.38 76.333C276.479 77.7504 278.3 79.0566 280.54 79.8876C281.976 80.421 283.402 80.6877 284.696 80.7151C284.871 79.7132 284.469 78.6087 283.552 78.2941Z" fill="white"/>
<path d="M268.575 69.6251C269.274 72.1794 268.503 74.6825 266.851 75.2159C265.2 75.7494 263.293 74.1132 262.594 71.5588C261.895 69.0044 262.666 66.5014 264.317 65.9679C265.967 65.4345 267.874 67.0724 268.575 69.6251Z" fill="#FFB692"/>
<path d="M266.819 70.1046C267.07 70.0225 267.332 70.0208 267.59 70.0823C267.58 70.0396 267.571 69.9969 267.559 69.9541C267.098 68.2666 265.838 67.186 264.747 67.5382C263.656 67.8904 263.147 69.5455 263.608 71.2313C263.964 72.529 264.79 73.4642 265.65 73.6694C265.246 72.028 265.756 70.4482 266.819 70.1046Z" fill="#D88D87"/>
<path d="M297.29 49.6336C294.514 54.5628 289.607 59.5176 281.357 57.9019C272.355 56.1391 270.637 50.3004 270.753 45.7695C267.281 47.8332 266.747 52.0887 266.681 53.8207C277.31 63.7048 289.217 60.4802 296.801 55.6348C297.88 53.5113 297.774 51.3809 297.29 49.6336Z" fill="#5B5B7F"/>
<path d="M312.201 128.327C307.743 124.441 314.47 119.084 314.47 119.084L315.844 113.238C315.844 113.238 320.997 114.69 318.665 119.522C318.665 119.522 325.345 115.948 328.45 117.02C329.909 117.523 332.697 122.821 332.719 126.036C332.724 126.718 332.171 127.263 331.488 127.25C329.852 127.217 326.59 127.475 324.018 129.71C320.431 132.825 314.01 134.976 312.201 128.327Z" fill="#FFB692"/>
<path d="M318.664 119.521C318.664 119.521 320.984 123.259 317.446 126.964C317.446 126.964 319.989 123.16 318.363 119.686L318.664 119.521Z" fill="#D88D87"/>
<path d="M322.264 127.521C322.264 127.521 322.192 123.956 320.335 120.907C320.335 120.907 323.828 122.523 322.264 127.521Z" fill="#D88D87"/>
<path d="M322.197 126.169L322.221 125.88C322.221 125.88 327.894 123.782 332.671 125.326C332.683 125.427 332.692 125.526 332.699 125.623C330.835 125.23 326.355 124.574 322.197 126.169Z" fill="#D88D87"/>
<path d="M321.416 122.225L321.125 121.857C321.125 121.857 325.918 118.166 330.379 119.157C330.97 120.125 331.543 121.317 331.975 122.522C330.527 122.256 326.186 121.749 322.122 124.189L321.97 123.863C321.97 123.863 326.78 120.132 331.634 121.924L330.616 119.575C330.616 119.575 325.807 118.675 321.416 122.225Z" fill="#D88D87"/>
<path d="M271.187 141.027L274.326 139.707L276.104 139.107C277.085 138.775 278.125 139.302 278.426 140.283L280.57 147.297C280.592 147.309 280.536 147.341 280.423 147.387C279.347 147.839 278.203 147.664 277.33 147.068C276.866 148.459 275.994 149.699 274.813 150.603C273.243 151.426 271.358 150.658 270.846 148.988L269.497 144.577C269.063 143.159 269.8 141.61 271.187 141.027Z" fill="#F29D7E"/>
<path d="M263.514 144.164L263.044 145.424C261.727 148.955 263.47 152.81 266.933 154.036C270.399 155.26 274.275 153.391 275.593 149.861L276.064 148.599C277.38 145.068 275.64 141.213 272.174 139.989C268.707 138.764 264.831 140.633 263.514 144.164Z" fill="#FFB692"/>
<path d="M269.832 148.798C269.232 149.573 269.357 150.684 270.107 151.267L275.874 155.331C276.627 155.914 277.733 155.757 278.333 154.981C278.933 154.206 278.808 153.095 278.058 152.512L272.289 148.448C271.538 147.865 270.431 148.022 269.832 148.798Z" fill="#FFB692"/>
<path d="M267.783 150.787C267.137 151.524 267.19 152.642 267.901 153.273L273.389 157.708C274.102 158.339 275.214 158.252 275.86 157.515C276.506 156.778 276.453 155.66 275.742 155.029L270.254 150.594C269.541 149.963 268.429 150.05 267.783 150.787Z" fill="#FFB692"/>
<path d="M274.06 144.104C273.46 144.88 273.584 145.989 274.335 146.572L280.102 150.636C280.854 151.219 281.96 151.062 282.561 150.286C283.161 149.511 283.036 148.4 282.285 147.817L276.517 143.753C275.766 143.17 274.66 143.329 274.06 144.104Z" fill="#FFB692"/>
<path d="M272.013 146.095C271.366 146.832 271.419 147.95 272.131 148.581L277.619 153.016C278.33 153.647 279.443 153.559 280.089 152.823C280.736 152.086 280.683 150.967 279.972 150.337L274.483 145.901C273.77 145.272 272.659 145.358 272.013 146.095Z" fill="#FFB692"/>
<path d="M439.228 267.143L448.511 269.932L453.581 253.055L444.298 250.266L439.228 267.143Z" fill="#FF5A5A"/>
<path d="M452.359 266.623L450.244 266.019L452.467 258.596L441.454 255.289L437.829 267.392L437.906 267.416L436.436 272.571L458.015 278.728L458.305 277.709C459.675 272.913 457.013 267.95 452.359 266.623Z" fill="#6BDDBC"/>
<path d="M436.116 273.754L457.9 279.969C458.336 280.093 458.793 279.839 458.917 279.403L459.051 278.936C459.176 278.5 458.921 278.043 458.485 277.919L436.701 271.704C436.265 271.579 435.808 271.834 435.684 272.27L435.55 272.736C435.425 273.172 435.68 273.629 436.116 273.754Z" fill="#3E3D5E"/>
<path d="M467.774 234.96L475.841 240.332L485.609 225.665L477.542 220.292L467.774 234.96Z" fill="#FF5A5A"/>
<path d="M480.773 238.483L478.637 237.104L482.927 230.649L473.356 224.275L466.361 234.797L466.428 234.842L463.518 239.345L482.366 251.524L483.272 250.12C485.798 246.218 484.678 241.007 480.773 238.483Z" fill="#6BDDBC"/>
<path d="M462.869 240.386L481.896 252.679C482.276 252.926 482.789 252.814 483.034 252.435L483.297 252.028C483.543 251.648 483.432 251.135 483.052 250.891L464.025 238.598C463.645 238.352 463.132 238.463 462.888 238.842L462.624 239.249C462.378 239.629 462.489 240.14 462.869 240.386Z" fill="#6D6D91"/>
<path d="M474.273 237.234C473.221 238.863 471.414 239.568 470.239 238.807C469.063 238.048 468.964 236.111 470.015 234.483C471.067 232.854 472.874 232.149 474.049 232.91C475.225 233.669 475.326 235.606 474.273 237.234Z" fill="white"/>
<path d="M450.808 149.544C450.808 149.544 509.693 183.077 479.714 225.433" stroke="#262638" stroke-width="11.9682" stroke-miterlimit="10"/>
<path d="M449.918 151.805C449.918 151.805 466.694 200.286 447.875 253.858" stroke="#3E3D5E" stroke-width="11.9682" stroke-miterlimit="10"/>
<path d="M478.81 98.3398C463.807 131.834 478.157 134.638 502.218 134.02" stroke="#FFB692" stroke-width="8.54872" stroke-miterlimit="10" stroke-linecap="round"/>
<path d="M481.443 111.955L485.815 98.1518C486.847 94.2142 484.423 90.1143 480.398 88.9927C476.374 87.8711 472.274 90.1519 471.241 94.0894L467.257 106.661L481.443 111.955Z" fill="#B72C54"/>
<path d="M451.259 157.779H461.649C467.936 157.779 473.079 152.477 473.079 145.999C473.079 141.661 469.636 138.113 465.428 138.113H447.481C443.273 138.113 439.83 141.663 439.83 145.999C439.831 152.477 444.974 157.779 451.259 157.779Z" fill="#3E3D5E"/>
<path d="M447.082 138.111H465.828C468.591 138.111 471.002 139.725 472.226 142.085C459.452 152.268 447.173 151.288 440.182 149.377C439.96 148.491 439.83 147.568 439.83 146.614V145.586C439.831 141.474 443.094 138.111 447.082 138.111Z" fill="#262638"/>
<path d="M475.164 140.506C474.262 145.042 470.256 148.338 465.631 148.234C462.287 148.159 458.47 147.767 454.35 146.792C448.181 145.334 443.303 143.038 439.88 141.084L449.46 92.968C450.599 87.2489 456.159 83.5353 461.878 84.674L472.478 86.7838C479.587 88.1995 484.202 95.1086 482.786 102.218L475.164 140.506Z" fill="#FF5A5A"/>
<path d="M458.214 86.7606C457.662 89.1714 461.517 92.16 466.822 93.4355C472.129 94.711 476.877 93.7894 477.43 91.3769C477.982 88.9662 474.126 85.9776 468.821 84.7021C463.514 83.4283 458.764 84.3482 458.214 86.7606Z" fill="#FFB692"/>
<path d="M450.938 95.042C424.815 116.573 441.092 135.004 470.761 133.614" stroke="#FFB692" stroke-width="8.54872" stroke-miterlimit="10" stroke-linecap="round"/>
<path d="M449.745 107.611L459.304 96.434C461.829 93.1718 461.173 88.5623 457.837 86.1379C454.501 83.7135 449.75 84.3922 447.224 87.6527L438.294 98.3044L449.745 107.611Z" fill="#B72C54"/>
<path d="M475.916 88.1562C479.19 70.2825 474.102 78.9509 469.927 78.1867C465.75 77.4224 463.854 68.6651 460.792 85.3864C459.644 91.6509 463.129 91.7296 467.306 92.4955C471.481 93.2598 474.767 94.4207 475.916 88.1562Z" fill="#FFB692"/>
<path d="M461.904 80.1932C464.37 70.7554 466.278 77.5175 469.925 78.186C473.968 78.9263 478.867 70.8238 476.201 86.5347C469.34 87.528 464.79 84.0829 461.904 80.1932Z" fill="#D88D87"/>
<path d="M482.536 65.7536C481.545 68.2071 482.02 70.7837 483.598 71.5103C485.176 72.237 487.259 70.8367 488.252 68.3832C489.244 65.9297 488.768 63.3531 487.19 62.6265C485.61 61.8998 483.528 63.3001 482.536 65.7536Z" fill="#FFB692"/>
<path d="M484.224 66.4361C483.983 66.325 483.724 66.2925 483.459 66.3233C483.475 66.2822 483.489 66.2412 483.504 66.2002C484.159 64.5793 485.535 63.6543 486.578 64.1348C487.621 64.6152 487.934 66.3181 487.279 67.9373C486.775 69.1837 485.845 70.0146 484.969 70.1155C485.561 68.534 485.239 66.9046 484.224 66.4361Z" fill="#D88D87"/>
<path d="M470.066 47.0798L476.901 47.3568C482.236 47.5722 486.418 52.2484 486.195 57.7452L485.607 72.2985C485.296 79.977 478.948 86.0124 471.498 85.7098C464.049 85.4088 458.209 78.881 458.52 71.2026L459.072 57.5298C459.316 51.5456 464.263 46.8439 470.066 47.0798Z" fill="#FFB692"/>
<path d="M460.92 51.8518C471.036 66.4069 481.562 61.399 486.187 57.9898L486.197 57.7436C486.236 56.7896 486.134 55.8629 485.923 54.9789L465.476 47.9775C463.632 48.8033 462.052 50.1523 460.92 51.8518Z" fill="#D88D87"/>
<path d="M459.073 63.6612C451.824 52.6419 459.69 49.9696 459.69 49.9696C459.69 49.9696 459.102 39.5453 469.111 40.0154C479.12 40.4856 484.949 46.0508 484.949 46.0508L488.306 40.9866C488.306 40.9866 493.711 47.7059 488.122 53.3309L494.424 50.3355C494.424 50.3355 494.002 60.7837 485.99 62.4097L485.508 57.1898C485.508 57.1898 472.042 62.6901 464.693 54.1379C464.693 54.1379 466.986 64.5024 460.913 66.5319L459.073 63.6612Z" fill="#3E3D5E"/>
<path d="M477.67 69.9844C477.67 69.9844 474.109 70.5076 474.066 71.1897C474.023 71.8719 475.73 72.2669 476.214 71.9933C476.699 71.7215 477.67 69.9844 477.67 69.9844Z" fill="#D88D87"/>
<path d="M479.039 64.8438C479.005 65.6919 479.645 66.4065 480.467 66.439C481.289 66.4715 481.984 65.8116 482.018 64.9635C482.052 64.1155 481.412 63.4008 480.59 63.3683C479.769 63.3359 479.074 63.9958 479.039 64.8438Z" fill="#34344F"/>
<path d="M468.329 64.4103C468.295 65.2583 468.935 65.973 469.757 66.0055C470.579 66.0379 471.274 65.378 471.31 64.5299C471.344 63.6819 470.704 62.9672 469.882 62.9347C469.06 62.9023 468.364 63.5622 468.329 64.4103Z" fill="#34344F"/>
<path d="M475.138 61.96C475.464 63.7381 475.907 65.4649 476.386 67.1815C476.63 68.0381 476.873 68.8947 477.152 69.7427L477.205 69.9017C477.227 69.9718 477.183 69.8539 477.217 69.7957C477.239 69.7513 477.218 69.7872 477.225 69.7803C477.208 69.8197 477.135 69.9017 477.066 69.9701L476.603 70.4078C476.283 70.707 475.953 71.0062 475.645 71.3516C476.087 71.2336 476.495 71.0507 476.894 70.8404C477.089 70.7275 477.289 70.6198 477.477 70.4694C477.574 70.3907 477.666 70.324 477.779 70.1821C477.812 70.1274 477.832 70.1206 477.87 70.0231C477.913 69.9103 477.892 69.7359 477.885 69.753L477.839 69.5906C477.593 68.7254 477.314 67.8688 477.034 67.014C476.466 65.3059 475.859 63.6064 475.138 61.96Z" fill="#D88D87"/>
<path d="M476.566 73.6833C474.935 73.1225 472.674 72.2215 470.611 70.9648C469.253 70.1373 467.673 71.8231 468.172 73.591C468.703 75.4734 469.872 77.3524 472.365 78.0192C474.408 78.5663 475.824 78.2312 476.8 77.5849C478.181 76.6702 478.021 74.1825 476.566 73.6833Z" fill="#34344F"/>
<path d="M472.365 78.0191C469.872 77.3523 468.703 75.4733 468.173 73.5908C468.097 73.3258 468.075 73.0642 468.085 72.8112C469.053 72.5479 470.279 72.5872 471.825 73.225C474.213 74.2115 475.128 76.2238 475.41 78.1559C475.41 78.1593 475.41 78.1627 475.41 78.1678C474.594 78.3525 473.596 78.3473 472.365 78.0191Z" fill="#FF9292"/>
<path d="M473.926 76.0979C473.604 76.4946 472.659 76.2586 471.816 75.5696C470.971 74.8805 470.547 74 470.869 73.6017C471.19 73.205 472.136 73.4409 472.978 74.13C473.823 74.819 474.247 75.7012 473.926 76.0979Z" fill="#FFABAB"/>
<path d="M476.565 73.6827C474.934 73.1219 472.674 72.2209 470.61 70.9642C469.776 70.4565 468.861 70.8976 468.393 71.7217C469.492 73.139 471.313 74.4453 473.552 75.2762C474.989 75.8097 476.415 76.0764 477.707 76.1037C477.883 75.1018 477.482 73.9973 476.565 73.6827Z" fill="white"/>
<path d="M461.588 65.0167C462.288 67.571 461.516 70.0741 459.865 70.6075C458.213 71.1427 456.307 69.5048 455.608 66.9504C454.908 64.396 455.679 61.893 457.331 61.3595C458.983 60.8261 460.887 62.464 461.588 65.0167Z" fill="#FFB692"/>
<path d="M459.833 65.4962C460.084 65.4141 460.346 65.4124 460.604 65.4739C460.594 65.4312 460.585 65.3885 460.573 65.3457C460.111 63.6582 458.851 62.5776 457.761 62.9298C456.67 63.282 456.16 64.9371 456.622 66.6229C456.978 67.9206 457.803 68.8558 458.663 69.061C458.26 67.4196 458.769 65.8398 459.833 65.4962Z" fill="#D88D87"/>
<path d="M490.304 45.0222C487.527 49.9514 482.62 54.9046 474.371 53.2906C465.369 51.5278 463.651 45.689 463.767 41.1582C460.294 43.2219 459.761 47.4774 459.694 49.2094C470.324 59.0934 482.23 55.8689 489.815 51.0234C490.894 48.8999 490.788 46.7696 490.304 45.0222Z" fill="#5B5B7F"/>
<path d="M493.947 133.619C491.23 128.368 499.454 125.857 499.454 125.857L502.88 120.926C502.88 120.926 507.139 124.169 503.195 127.806C503.195 127.806 510.719 126.939 513.212 129.076C514.383 130.08 515.031 136.033 513.869 139.03C513.623 139.666 512.906 139.971 512.277 139.707C510.766 139.076 507.637 138.117 504.424 139.251C499.95 140.827 493.188 140.468 493.947 133.619Z" fill="#FFB692"/>
<path d="M503.195 127.807C503.195 127.807 503.979 132.136 499.327 134.281C499.327 134.281 503.089 131.679 502.854 127.849L503.195 127.807Z" fill="#D88D87"/>
<path d="M503.604 136.567C503.604 136.567 504.846 133.224 504.239 129.707C504.239 129.707 506.896 132.494 503.604 136.567Z" fill="#D88D87"/>
<path d="M504.038 135.287L504.166 135.027C504.166 135.027 510.212 135.161 514.09 138.353C514.062 138.45 514.035 138.546 514.006 138.64C512.418 137.589 508.492 135.33 504.038 135.287Z" fill="#D88D87"/>
<path d="M504.761 131.331L504.626 130.882C504.626 130.882 510.441 129.21 514.225 131.772C514.418 132.891 514.513 134.209 514.472 135.489C513.224 134.71 509.374 132.643 504.696 133.419L504.674 133.06C504.674 133.06 510.518 131.357 514.373 134.807L514.291 132.248C514.291 132.248 510.149 129.644 504.761 131.331Z" fill="#D88D87"/>
<path d="M472.321 127.01L473.925 124.006L474.927 122.419C475.481 121.542 476.619 121.296 477.471 121.869L483.559 125.958C483.583 125.953 483.561 126.015 483.503 126.122C482.952 127.15 481.955 127.738 480.9 127.825C481.419 129.197 481.525 130.708 481.178 132.158C480.478 133.786 478.531 134.379 477.081 133.406L473.251 130.833C472.018 130.002 471.613 128.337 472.321 127.01Z" fill="#F29D7E"/>
<path d="M468.346 134.285L468.776 135.561C469.982 139.13 473.765 141.025 477.226 139.789C480.688 138.554 482.518 134.658 481.312 131.088L480.881 129.812C479.676 126.242 475.892 124.348 472.43 125.584C468.97 126.819 467.14 130.713 468.346 134.285Z" fill="#FFB692"/>
<path d="M476.169 133.895C476.193 134.874 476.99 135.659 477.94 135.637L484.979 135.153C485.93 135.131 486.689 134.31 486.667 133.331C486.643 132.351 485.846 131.566 484.895 131.588L477.856 132.072C476.906 132.094 476.147 132.913 476.169 133.895Z" fill="#FFB692"/>
<path d="M475.836 136.731C475.798 137.71 476.545 138.545 477.496 138.586L484.552 138.565C485.503 138.606 486.311 137.837 486.347 136.857C486.385 135.878 485.638 135.043 484.687 135.004L477.631 135.024C476.682 134.983 475.873 135.751 475.836 136.731Z" fill="#FFB692"/>
<path d="M476.492 127.585C476.516 128.565 477.312 129.35 478.263 129.327L485.302 128.844C486.253 128.821 487.012 128.001 486.99 127.021C486.966 126.041 486.169 125.257 485.218 125.279L478.179 125.763C477.227 125.785 476.468 126.606 476.492 127.585Z" fill="#FFB692"/>
<path d="M476.157 130.421C476.12 131.401 476.867 132.235 477.817 132.276L484.873 132.255C485.824 132.297 486.633 131.527 486.669 130.547C486.706 129.568 485.959 128.733 485.008 128.692L477.952 128.713C477.003 128.672 476.195 129.441 476.157 130.421Z" fill="#FFB692"/>
<path d="M657.269 101.513C624.43 85.1248 621.029 99.3447 620.643 123.413" stroke="#FFB692" stroke-width="8.54872" stroke-miterlimit="10" stroke-linecap="round"/>
<path d="M643.556 103.575L657.166 108.519C661.057 109.716 665.254 107.464 666.544 103.489C667.833 99.5139 665.723 95.3233 661.833 94.1265L649.438 89.623L643.556 103.575Z" fill="#B72C54"/>
<path d="M621.388 115.164C626.748 112.669 628.914 120.991 628.914 120.991L633.698 124.62C633.698 124.62 630.28 128.741 626.811 124.648C626.811 124.648 627.364 132.203 625.124 134.604C624.072 135.732 618.097 136.13 615.151 134.845C614.527 134.571 614.251 133.843 614.54 133.226C615.235 131.743 616.322 128.657 615.325 125.4C613.937 120.861 614.578 114.117 621.388 115.164Z" fill="#FFB692"/>
<path d="M626.811 124.646C626.811 124.646 622.453 125.249 620.504 120.512C620.504 120.512 622.947 124.379 626.784 124.304L626.811 124.646Z" fill="#D88D87"/>
<path d="M618.042 124.688C618.042 124.688 621.33 126.069 624.869 125.609C624.869 125.609 621.973 128.148 618.042 124.688Z" fill="#D88D87"/>
<path d="M619.302 125.176L619.557 125.314C619.557 125.314 619.171 131.35 615.821 135.089C615.724 135.058 615.63 135.026 615.538 134.993C616.652 133.453 619.072 129.625 619.302 125.176Z" fill="#D88D87"/>
<path d="M623.225 126.063L623.68 125.947C623.68 125.947 625.107 131.825 622.391 135.499C621.266 135.646 619.944 135.687 618.667 135.591C619.498 134.376 621.724 130.616 621.144 125.909L621.505 125.902C621.505 125.902 622.962 131.811 619.354 135.521L621.914 135.545C621.914 135.545 624.685 131.517 623.225 126.063Z" fill="#D88D87"/>
<path d="M586.088 250.257L590.067 259.095L606.135 251.859L602.156 243.021L586.088 250.257Z" fill="#FF5A5A"/>
<path d="M595.137 259.83L594.207 257.836L601.27 254.649L596.547 244.165L585.031 249.363L585.063 249.436L580.206 251.705L589.703 272.036L590.662 271.588C595.181 269.478 597.185 264.213 595.137 259.83Z" fill="#6BDDBC"/>
<path d="M579.104 252.237L588.691 272.76C588.882 273.171 589.375 273.348 589.785 273.157L590.224 272.952C590.635 272.76 590.812 272.268 590.621 271.858L581.034 251.332C580.843 250.922 580.351 250.744 579.94 250.935L579.501 251.141C579.092 251.334 578.913 251.826 579.104 252.237Z" fill="#3E3D5E"/>
<path d="M728.054 228.82L736.778 224.597L729.1 208.735L720.376 212.958L728.054 228.82Z" fill="#FF5A5A"/>
<path d="M737.72 219.393L735.448 220.532L732.066 213.56L721.717 218.569L727.23 229.937L727.304 229.901L729.706 234.694L749.767 224.637L749.018 223.144C746.934 218.99 741.874 217.309 737.72 219.393Z" fill="#6BDDBC"/>
<path d="M730.267 235.783L750.519 225.631C750.924 225.427 751.089 224.931 750.887 224.526L750.67 224.093C750.466 223.688 749.97 223.524 749.565 223.726L729.313 233.878C728.908 234.082 728.744 234.578 728.946 234.983L729.163 235.417C729.366 235.821 729.864 235.986 730.267 235.783Z" fill="#6D6D91"/>
<path d="M733.341 224.356C734.21 226.089 733.9 228.003 732.649 228.63C731.397 229.258 729.679 228.36 728.81 226.628C727.942 224.894 728.251 222.981 729.503 222.354C730.754 221.726 732.473 222.622 733.341 224.356Z" fill="white"/>
<path d="M640.675 158.62C640.675 158.62 699.131 154.922 725.909 214.101" stroke="#262638" stroke-width="11.9682" stroke-miterlimit="10"/>
<path d="M640.491 158.572C640.491 158.572 658.967 220.162 600.54 249.038" stroke="#3E3D5E" stroke-width="11.9682" stroke-miterlimit="10"/>
<path d="M641.831 164.546H652.221C658.508 164.546 663.651 159.244 663.651 152.766C663.651 148.429 660.208 144.881 656 144.881H638.053C633.845 144.881 630.402 148.43 630.402 152.766C630.403 159.244 635.546 164.546 641.831 164.546Z" fill="#3E3D5E"/>
<path d="M637.654 144.88H656.4C659.163 144.88 661.574 146.494 662.798 148.853C650.024 159.037 637.745 158.057 630.754 156.145C630.532 155.26 630.402 154.336 630.402 153.382V152.355C630.403 148.243 633.666 144.88 637.654 144.88Z" fill="#262638"/>
<path d="M665.736 147.275C664.833 151.811 660.827 155.108 656.202 155.003C652.858 154.928 649.042 154.537 644.921 153.562C638.753 152.104 633.875 149.807 630.452 147.853L640.032 99.7375C641.17 94.0184 646.73 90.3049 652.45 91.4435L663.05 93.5534C670.159 94.969 674.774 101.878 673.358 108.987L665.736 147.275Z" fill="#FF5A5A"/>
<path d="M648.786 93.5302C648.233 95.9409 652.089 98.9295 657.394 100.205C662.701 101.48 667.449 100.559 668.001 98.1465C668.554 95.7357 664.698 92.7471 659.393 91.4716C654.086 90.1979 649.336 91.1177 648.786 93.5302Z" fill="#FFB692"/>
<path d="M643.667 103.902C643.934 137.754 668.499 136.724 686.11 112.805" stroke="#FFB692" stroke-width="8.54872" stroke-miterlimit="10" stroke-linecap="round"/>
<path d="M652.678 112.749L650.019 98.2844C649.077 94.2682 645.083 91.8746 641.098 92.938C637.112 94.0015 634.647 98.1185 635.589 102.135L638.236 115.78L652.678 112.749Z" fill="#B72C54"/>
<path d="M666.488 94.9238C669.762 77.0501 664.674 85.7185 660.497 84.9542C656.32 84.19 654.426 75.4327 651.362 92.154C650.215 98.4185 653.699 98.4971 657.876 99.2631C662.053 100.027 665.341 101.188 666.488 94.9238Z" fill="#FFB692"/>
<path d="M652.476 86.9608C654.942 77.523 656.85 84.285 660.497 84.9535C664.54 85.6939 669.439 77.5914 666.773 93.3022C659.914 94.2956 655.362 90.8505 652.476 86.9608Z" fill="#D88D87"/>
<path d="M673.108 72.5183C672.116 74.9717 672.591 77.5483 674.169 78.275C675.747 79.0016 677.832 77.6013 678.823 75.1479C679.815 72.6944 679.34 70.1178 677.762 69.3911C676.182 68.6645 674.099 70.0648 673.108 72.5183Z" fill="#FFB692"/>
<path d="M674.795 73.2008C674.554 73.0896 674.296 73.0571 674.031 73.0879C674.046 73.0469 674.06 73.0058 674.075 72.9648C674.73 71.344 676.106 70.419 677.149 70.8994C678.192 71.3799 678.505 73.0828 677.85 74.7019C677.346 75.9483 676.416 76.7792 675.54 76.8801C676.132 75.2986 675.812 73.6692 674.795 73.2008Z" fill="#D88D87"/>
<path d="M660.638 53.8464L667.473 54.1234C672.808 54.3388 676.99 59.015 676.768 64.5118L676.179 79.0651C675.868 86.7436 669.52 92.779 662.071 92.4764C654.621 92.1754 648.781 85.6476 649.092 77.9692L649.646 64.2964C649.887 58.3122 654.833 53.6105 660.638 53.8464Z" fill="#FFB692"/>
<path d="M651.491 58.6184C661.608 73.1735 672.133 68.1656 676.758 64.7564L676.768 64.5102C676.807 63.5562 676.705 62.6295 676.494 61.7455L656.048 54.7441C654.203 55.5699 652.623 56.9189 651.491 58.6184Z" fill="#D88D87"/>
<path d="M649.645 70.4278C642.396 59.4085 650.262 56.7362 650.262 56.7362C650.262 56.7362 649.674 46.3119 659.683 46.782C669.692 47.2522 675.52 52.8174 675.52 52.8174L678.878 47.7532C678.878 47.7532 684.283 54.4725 678.694 60.0975L684.996 57.1021C684.996 57.1021 684.573 67.5503 676.561 69.1763L676.079 63.9564C676.079 63.9564 662.613 69.4567 655.265 60.9045C655.265 60.9045 657.558 71.269 651.485 73.2985L649.645 70.4278Z" fill="#3E3D5E"/>
<path d="M668.242 76.752C668.242 76.752 664.68 77.2751 664.638 77.9573C664.595 78.6395 666.301 79.0345 666.785 78.7609C667.271 78.4891 668.242 76.752 668.242 76.752Z" fill="#D88D87"/>
<path d="M669.612 71.6104C669.578 72.4585 670.217 73.1732 671.04 73.2056C671.862 73.2381 672.556 72.5782 672.592 71.7301C672.626 70.8821 671.987 70.1674 671.164 70.1349C670.342 70.1025 669.646 70.7624 669.612 71.6104Z" fill="#34344F"/>
<path d="M658.902 71.1769C658.868 72.0249 659.507 72.7396 660.329 72.7721C661.152 72.8045 661.848 72.1446 661.882 71.2965C661.916 70.4485 661.277 69.7338 660.454 69.7013C659.632 69.6689 658.938 70.3288 658.902 71.1769Z" fill="#34344F"/>
<path d="M665.71 68.7266C666.037 70.5047 666.48 72.2315 666.958 73.9481C667.203 74.8047 667.446 75.6613 667.724 76.5093L667.777 76.6683C667.799 76.7384 667.755 76.6205 667.789 76.5623C667.811 76.5179 667.791 76.5538 667.798 76.5469C667.781 76.5863 667.707 76.6683 667.639 76.7367L667.175 77.1744C666.856 77.4736 666.526 77.7728 666.218 78.1182C666.659 78.0002 667.068 77.8173 667.466 77.607C667.661 77.4941 667.861 77.3864 668.051 77.236C668.148 77.1573 668.241 77.0906 668.354 76.9487C668.386 76.894 668.406 76.8872 668.444 76.7897C668.487 76.6769 668.466 76.5025 668.459 76.5196L668.413 76.3572C668.169 75.492 667.888 74.6354 667.608 73.7806C667.039 72.0725 666.432 70.373 665.71 68.7266Z" fill="#D88D87"/>
<path d="M667.138 80.4489C665.507 79.8881 663.246 78.9871 661.183 77.7304C659.825 76.9029 658.245 78.5887 658.745 80.3566C659.275 82.239 660.444 84.118 662.937 84.7848C664.98 85.3319 666.396 84.9968 667.372 84.3505C668.753 83.4358 668.593 80.9482 667.138 80.4489Z" fill="#34344F"/>
<path d="M662.937 84.7847C660.444 84.1179 659.275 82.2389 658.745 80.3565C658.67 80.0915 658.647 79.8299 658.658 79.5768C659.625 79.3135 660.851 79.3529 662.397 79.9906C664.785 80.9771 665.7 82.9895 665.982 84.9215C665.982 84.9249 665.982 84.9283 665.982 84.9335C665.168 85.1181 664.168 85.113 662.937 84.7847Z" fill="#FF9292"/>
<path d="M664.498 82.8635C664.176 83.2602 663.231 83.0242 662.388 82.3352C661.543 81.6462 661.119 80.7656 661.443 80.3673C661.764 79.9706 662.709 80.2066 663.552 80.8956C664.395 81.5846 664.819 82.4669 664.498 82.8635Z" fill="#FFABAB"/>
<path d="M667.137 80.4484C665.506 79.8876 663.246 78.9865 661.182 77.7299C660.348 77.2221 659.433 77.6632 658.965 78.4873C660.064 79.9047 661.885 81.2109 664.125 82.0419C665.561 82.5753 666.987 82.842 668.281 82.8694C668.456 81.8675 668.054 80.763 667.137 80.4484Z" fill="white"/>
<path d="M652.16 71.7794C652.859 74.3337 652.088 76.8368 650.436 77.3702C648.785 77.9054 646.878 76.2675 646.179 73.7131C645.48 71.1587 646.251 68.6557 647.902 68.1222C649.554 67.5888 651.459 69.2267 652.16 71.7794Z" fill="#FFB692"/>
<path d="M650.404 72.2589C650.655 72.1768 650.917 72.1751 651.175 72.2366C651.165 72.1939 651.156 72.1511 651.144 72.1084C650.683 70.4209 649.423 69.3403 648.332 69.6925C647.241 70.0447 646.732 71.6998 647.193 73.3856C647.549 74.6833 648.375 75.6185 649.235 75.8237C648.831 74.1823 649.341 72.6025 650.404 72.2589Z" fill="#D88D87"/>
<path d="M680.875 51.7898C678.099 56.719 673.192 61.6721 664.942 60.0581C655.94 58.2954 654.222 52.4566 654.338 47.9258C650.866 49.9894 650.332 54.245 650.266 55.977C660.895 65.861 672.802 62.6364 680.386 57.791C681.465 55.6675 681.359 53.5372 680.875 51.7898Z" fill="#5B5B7F"/>
<path d="M681.966 107.434L680.645 104.296L680.043 102.518C679.711 101.537 680.236 100.497 681.217 100.196L688.229 98.0438C688.241 98.0216 688.273 98.078 688.321 98.1909C688.773 99.2663 688.602 100.41 688.005 101.284C689.397 101.745 690.636 102.616 691.544 103.797C692.368 105.365 691.602 107.253 689.932 107.765L685.523 109.12C684.1 109.556 682.549 108.82 681.966 107.434Z" fill="#F29D7E"/>
<path d="M685.11 115.102L686.372 115.571C689.904 116.884 693.758 115.138 694.979 111.671C696.201 108.203 694.327 104.329 690.795 103.016L689.533 102.547C686.001 101.234 682.147 102.98 680.927 106.447C679.706 109.915 681.58 113.789 685.11 115.102Z" fill="#FFB692"/>
<path d="M689.737 108.781C690.513 109.38 691.624 109.255 692.206 108.503L696.264 102.731C696.846 101.978 696.687 100.872 695.912 100.272C695.136 99.6736 694.025 99.7984 693.443 100.551L689.384 106.323C688.801 107.075 688.96 108.181 689.737 108.781Z" fill="#FFB692"/>
<path d="M691.728 110.826C692.465 111.472 693.585 111.417 694.214 110.704L698.644 105.211C699.274 104.498 699.186 103.387 698.449 102.74C697.713 102.094 696.594 102.149 695.964 102.862L691.534 108.353C690.904 109.068 690.992 110.179 691.728 110.826Z" fill="#FFB692"/>
<path d="M685.04 104.557C685.816 105.155 686.927 105.03 687.509 104.278L691.568 98.506C692.149 97.7537 691.99 96.6475 691.216 96.0474C690.439 95.449 689.328 95.5738 688.747 96.3261L684.688 102.098C684.105 102.85 684.264 103.957 685.04 104.557Z" fill="#FFB692"/>
<path d="M687.032 106.601C687.769 107.248 688.888 107.193 689.518 106.48L693.948 100.988C694.578 100.275 694.49 99.1638 693.753 98.5176C693.016 97.8713 691.896 97.926 691.267 98.639L686.837 104.132C686.206 104.844 686.295 105.955 687.032 106.601Z" fill="#FFB692"/>
<path d="M863.971 104.088C838.348 77.8128 830.459 90.1247 822.182 112.728" stroke="#FFB692" stroke-width="8.54872" stroke-miterlimit="10" stroke-linecap="round"/>
<path d="M850.345 101.527L861.571 110.673C864.852 113.082 869.558 112.336 872.081 109.006C874.605 105.677 873.991 101.025 870.712 98.614L860.486 90.2842L850.345 101.527Z" fill="#B72C54"/>
<path d="M825.598 105.182C831.482 104.589 830.789 113.158 830.789 113.158L834.114 118.159C834.114 118.159 829.532 120.926 827.602 115.919C827.602 115.919 825.641 123.235 822.736 124.767C821.372 125.487 815.598 123.899 813.239 121.716C812.738 121.252 812.719 120.474 813.194 119.987C814.336 118.814 816.379 116.258 816.508 112.854C816.687 108.113 819.51 101.956 825.598 105.182Z" fill="#FFB692"/>
<path d="M827.602 115.921C827.602 115.921 823.288 115.058 823.004 109.942C823.004 109.942 824.041 114.398 827.687 115.59L827.602 115.921Z" fill="#D88D87"/>
<path d="M819.305 113.076C819.305 113.076 821.955 115.461 825.45 116.193C825.45 116.193 821.88 117.636 819.305 113.076Z" fill="#D88D87"/>
<path d="M820.336 113.951L820.531 114.167C820.531 114.167 818.182 119.739 813.788 122.17C813.707 122.11 813.629 122.049 813.552 121.987C815.113 120.896 818.655 118.077 820.336 113.951Z" fill="#D88D87"/>
<path d="M823.749 116.079L824.215 116.119C824.215 116.119 823.631 122.14 819.856 124.717C818.744 124.486 817.482 124.089 816.31 123.58C817.494 122.704 820.832 119.885 821.832 115.25L822.174 115.363C822.174 115.363 821.606 121.422 816.98 123.739L819.389 124.604C819.389 124.604 823.335 121.708 823.749 116.079Z" fill="#D88D87"/>
<path d="M772.739 193.541L768.78 202.388L784.864 209.586L788.823 200.74L772.739 193.541Z" fill="#FF5A5A"/>
<path d="M771.663 206.627L772.533 204.607L779.608 207.766L784.305 197.272L772.767 192.119L772.735 192.192L767.811 190.07L758.927 210.678L759.9 211.097C764.482 213.072 769.748 211.071 771.663 206.627Z" fill="#6BDDBC"/>
<path d="M766.682 189.6L757.714 210.402C757.535 210.818 757.728 211.305 758.144 211.483L758.588 211.674C759.003 211.854 759.491 211.661 759.67 211.245L768.638 190.443C768.817 190.027 768.624 189.54 768.209 189.362L767.764 189.171C767.349 188.991 766.861 189.184 766.682 189.6Z" fill="#3E3D5E"/>
<path d="M930.304 260.426L938.325 254.985L928.434 240.401L920.413 245.841L930.304 260.426Z" fill="#FF5A5A"/>
<path d="M938.433 249.61L936.349 251.065L931.994 244.655L922.478 251.11L929.578 261.561L929.645 261.515L932.716 265.909L951.111 253.059L950.155 251.689C947.493 247.878 942.244 246.946 938.433 249.61Z" fill="#6BDDBC"/>
<path d="M933.43 266.904L952.002 253.93C952.373 253.671 952.465 253.156 952.205 252.785L951.928 252.388C951.668 252.017 951.154 251.925 950.783 252.185L932.211 265.158C931.84 265.418 931.748 265.933 932.008 266.304L932.285 266.701C932.543 267.072 933.059 267.164 933.43 266.904Z" fill="#6D6D91"/>
<path d="M934.818 255.154C935.928 256.745 935.899 258.682 934.752 259.484C933.605 260.285 931.775 259.646 930.664 258.056C929.553 256.466 929.583 254.529 930.731 253.727C931.878 252.925 933.709 253.564 934.818 255.154Z" fill="white"/>
<path d="M845.901 162.988C845.901 162.988 882.994 178.357 925.372 244.829" stroke="#262638" stroke-width="11.9682" stroke-miterlimit="10"/>
<path d="M845.722 162.928C845.722 162.928 878.149 236.968 783.551 203.269" stroke="#3E3D5E" stroke-width="11.9682" stroke-miterlimit="10"/>
<path d="M846.577 168.989L856.933 169.829C863.199 170.337 868.754 165.469 869.277 159.01C869.628 154.686 866.482 150.871 862.288 150.531L844.399 149.081C840.205 148.741 836.486 152 836.135 156.324C835.612 162.781 840.311 168.482 846.577 168.989Z" fill="#3E3D5E"/>
<path d="M844 149.05L862.686 150.564C865.438 150.788 867.712 152.592 868.742 155.041C855.187 164.159 843.027 162.191 836.214 159.72C836.065 158.819 836.009 157.889 836.087 156.938L836.171 155.914C836.501 151.816 840.025 148.726 844 149.05Z" fill="#262638"/>
<path d="M871.797 153.706C870.53 158.155 866.271 161.116 861.67 160.639C858.343 160.294 854.572 159.594 850.543 158.292C844.513 156.339 839.837 153.658 836.582 151.432L850.017 104.248C851.614 98.6385 857.456 95.3866 863.066 96.9835L873.461 99.943C880.431 101.928 884.473 109.188 882.488 116.158L871.797 153.706Z" fill="#FF5A5A"/>
<path d="M859.245 98.7661C858.499 101.126 862.1 104.415 867.286 106.115C872.471 107.814 877.281 107.279 878.025 104.921C878.77 102.562 875.169 99.2721 869.984 97.5727C864.798 95.8715 859.988 96.4066 859.245 98.7661Z" fill="#FFB692"/>
<path d="M876.776 101.588C881.483 84.0379 875.713 92.2669 871.611 91.1675C867.51 90.0681 866.328 81.186 861.924 97.6047C860.274 103.755 863.741 104.115 867.843 105.216C871.945 106.316 875.126 107.74 876.776 101.588Z" fill="#FFB692"/>
<path d="M863.454 92.5205C866.673 83.3135 868.029 90.2072 871.611 91.1681C875.583 92.2333 881.119 84.5531 877.193 99.9955C870.274 100.431 866.017 96.6307 863.454 92.5205Z" fill="#D88D87"/>
<path d="M885.184 79.7906C883.997 82.1551 884.262 84.7625 885.777 85.6139C887.292 86.4654 889.481 85.2378 890.667 82.8732C891.854 80.5086 891.589 77.9013 890.074 77.0498C888.561 76.2001 886.371 77.426 885.184 79.7906Z" fill="#FFB692"/>
<path d="M886.812 80.6085C886.581 80.4785 886.324 80.4256 886.059 80.4341C886.078 80.3948 886.093 80.3537 886.114 80.3144C886.899 78.7517 888.345 77.9413 889.345 78.5038C890.346 79.0663 890.522 80.788 889.737 82.3507C889.133 83.551 888.14 84.305 887.258 84.3357C887.976 82.8072 887.786 81.1573 886.812 80.6085Z" fill="#D88D87"/>
<path d="M874.264 60.1721L881.055 60.9996C886.354 61.6459 890.146 66.6435 889.479 72.1061L887.716 86.5637C886.786 94.1909 879.971 99.6929 872.571 98.7918C865.172 97.8891 859.878 90.9116 860.807 83.2827L862.463 69.6988C863.188 63.7574 868.499 59.4694 874.264 60.1721Z" fill="#FFB692"/>
<path d="M864.763 64.191C873.671 79.5172 884.567 75.3745 889.45 72.3499L889.479 72.1054C889.594 71.1582 889.568 70.2264 889.429 69.3271L869.615 60.6963C867.711 61.3699 866.028 62.5873 864.763 64.191Z" fill="#D88D87"/>
<path d="M861.967 75.8123C855.633 64.2442 863.689 62.2164 863.689 62.2164C863.689 62.2164 863.945 51.7784 873.884 53.0556C883.823 54.3328 889.183 60.3511 889.183 60.3511L892.939 55.574C892.939 55.574 897.783 62.7071 891.758 67.862L898.281 65.3863C898.281 65.3863 897.015 75.7661 888.897 76.7407L888.838 71.4986C888.838 71.4986 874.97 75.8926 868.338 66.7746C868.338 66.7746 869.786 77.2895 863.568 78.8214L861.967 75.8123Z" fill="#3E3D5E"/>
<path d="M879.992 83.6201C879.992 83.6201 876.399 83.8543 876.302 84.5314C876.204 85.2085 877.873 85.7385 878.378 85.506C878.884 85.2717 879.992 83.6201 879.992 83.6201Z" fill="#D88D87"/>
<path d="M881.773 78.6069C881.67 79.4498 882.25 80.2123 883.067 80.3132C883.884 80.4123 884.63 79.8105 884.732 78.9676C884.835 78.1247 884.255 77.3622 883.438 77.263C882.621 77.1621 881.875 77.764 881.773 78.6069Z" fill="#34344F"/>
<path d="M871.133 77.31C871.031 78.1529 871.61 78.9154 872.427 79.0163C873.245 79.1155 873.99 78.5136 874.093 77.6707C874.195 76.8278 873.616 76.0653 872.798 75.9661C871.981 75.8652 871.236 76.4671 871.133 77.31Z" fill="#34344F"/>
<path d="M878.117 75.417C878.299 77.2156 878.601 78.9716 878.94 80.7223C879.114 81.596 879.287 82.4697 879.497 83.3382L879.536 83.5007C879.552 83.5725 879.518 83.4511 879.557 83.3964C879.583 83.3553 879.56 83.3878 879.566 83.3827C879.545 83.4186 879.465 83.4972 879.393 83.5588L878.895 83.9589C878.552 84.2324 878.199 84.5043 877.864 84.8223C878.312 84.7402 878.735 84.5915 879.15 84.4137C879.353 84.3162 879.562 84.2256 879.762 84.0922C879.865 84.0204 879.962 83.9623 880.087 83.8307C880.125 83.7794 880.145 83.7742 880.19 83.6802C880.241 83.5708 880.234 83.3964 880.227 83.4118L880.195 83.2459C880.02 82.3637 879.81 81.4883 879.6 80.6129C879.169 78.8604 878.702 77.1182 878.117 75.417Z" fill="#D88D87"/>
<path d="M878.593 87.2147C877.011 86.5239 874.833 85.4434 872.877 84.0243C871.591 83.0908 869.88 84.6415 870.234 86.4453C870.61 88.3636 871.624 90.3316 874.053 91.1967C876.045 91.9062 877.485 91.6874 878.509 91.1215C879.961 90.3213 880.002 87.8302 878.593 87.2147Z" fill="#34344F"/>
<path d="M874.055 91.1966C871.626 90.3314 870.612 88.3635 870.236 86.4452C870.183 86.1751 870.181 85.9118 870.212 85.6604C871.196 85.4775 872.415 85.6143 873.905 86.3751C876.206 87.5514 876.955 89.6322 877.08 91.5796C877.08 91.583 877.08 91.5864 877.08 91.5915C876.25 91.7112 875.255 91.624 874.055 91.1966Z" fill="#FF9292"/>
<path d="M875.767 89.4086C875.414 89.7779 874.491 89.4667 873.705 88.711C872.92 87.9553 872.568 87.044 872.92 86.673C873.272 86.3037 874.195 86.6149 874.982 87.3706C875.768 88.1263 876.119 89.0376 875.767 89.4086Z" fill="#FFABAB"/>
<path d="M878.593 87.2157C877.011 86.525 874.833 85.4444 872.877 84.0253C872.087 83.4525 871.138 83.8184 870.607 84.6015C871.588 86.1026 873.298 87.5525 875.464 88.5613C876.854 89.2075 878.253 89.5905 879.538 89.7222C879.791 88.7374 879.482 87.6038 878.593 87.2157Z" fill="white"/>
<path d="M864.364 77.3647C864.855 79.9669 863.884 82.3999 862.195 82.7983C860.506 83.1966 858.738 81.4117 858.247 78.8094C857.756 76.2072 858.727 73.7742 860.417 73.3759C862.106 72.9775 863.874 74.7642 864.364 77.3647Z" fill="#FFB692"/>
<path d="M862.576 77.6998C862.834 77.6383 863.094 77.6588 863.347 77.7409C863.34 77.6981 863.335 77.6554 863.327 77.6109C863.002 75.8926 861.834 74.7129 860.718 74.9762C859.601 75.2395 858.96 76.8467 859.285 78.565C859.534 79.8866 860.283 80.8868 861.123 81.1603C860.853 79.4899 861.487 77.9563 862.576 77.6998Z" fill="#D88D87"/>
<path d="M894.601 59.7578C891.435 64.4459 886.145 68.987 878.053 66.7113C869.222 64.2271 867.982 58.2686 868.463 53.7617C864.835 55.5381 863.959 59.7373 863.752 61.4573C873.549 72.1688 885.676 69.9171 893.629 65.6992C894.875 63.6697 894.943 61.5394 894.601 59.7578Z" fill="#5B5B7F"/>
<path d="M855.401 107.737C864.545 140.332 887.98 132.888 898.692 105.185" stroke="#FFB692" stroke-width="8.54872" stroke-miterlimit="10" stroke-linecap="round"/>
<path d="M866.416 113.906L860.055 100.647C858.09 97.0188 853.609 95.757 850.042 97.8292C846.476 99.9014 845.178 104.521 847.141 108.149L853.277 120.622L866.416 113.906Z" fill="#B72C54"/>
<path d="M893.282 101.09L891.182 98.409L890.134 96.8514C889.556 95.9914 889.791 94.8493 890.657 94.3022L896.859 90.3851C896.864 90.3612 896.91 90.4074 896.985 90.5031C897.703 91.4212 897.838 92.5719 897.491 93.5704C898.955 93.6508 900.381 94.1654 901.565 95.0664C902.773 96.3641 902.528 98.385 901.053 99.3186L897.153 101.782C895.898 102.576 894.208 102.273 893.282 101.09Z" fill="#F29D7E"/>
<path d="M898.331 107.667L899.671 107.788C903.424 108.128 906.684 105.432 906.953 101.766C907.221 98.1007 904.397 94.8539 900.644 94.5137L899.303 94.3922C895.55 94.052 892.29 96.7483 892.022 100.414C891.753 104.078 894.578 107.326 898.331 107.667Z" fill="#FFB692"/>
<path d="M901.134 100.35C902.041 100.725 903.08 100.313 903.442 99.4338L905.843 92.7983C906.207 91.9195 905.763 90.8936 904.856 90.5192C903.95 90.1448 902.911 90.5568 902.548 91.4356L900.148 98.0712C899.784 98.95 900.228 99.9758 901.134 100.35Z" fill="#FFB692"/>
<path d="M903.593 101.801C904.474 102.23 905.539 101.884 905.959 101.031L908.791 94.5683C909.211 93.7151 908.835 92.6654 907.955 92.2362C907.074 91.8071 906.009 92.1524 905.589 93.0056L902.755 99.4684C902.337 100.32 902.713 101.37 903.593 101.801Z" fill="#FFB692"/>
<path d="M895.493 97.5065C896.399 97.8809 897.438 97.4689 897.801 96.5901L900.201 89.9546C900.566 89.0757 900.121 88.0499 899.215 87.6755C898.309 87.301 897.269 87.7131 896.907 88.5919L894.506 95.2274C894.144 96.1062 894.587 97.1321 895.493 97.5065Z" fill="#FFB692"/>
<path d="M897.953 98.9587C898.833 99.3879 899.898 99.0425 900.319 98.1893L903.15 91.7265C903.571 90.8733 903.195 89.8236 902.314 89.3944C901.434 88.9653 900.369 89.3106 899.948 90.1638L897.117 96.6266C896.694 97.4781 897.071 98.5279 897.953 98.9587Z" fill="#FFB692"/>
</svg>
